<svg xmlns="http://www.w3.org/2000/svg" width="285.377" height="77" viewBox="0.5 0 285.377 77"><g data-name="Component 3 – 29"><path d="M39.5 4h35v70h-35V4z" fill="#2289ff" fill-rule="evenodd" data-name="Rectangle 97"/><path d="M78.5 77H.5V0h78v77ZM6.74 5.723v65.554h65.52V5.723H6.74Z" fill="#2289ff" fill-rule="evenodd" data-name="Subtraction 1"/><path d="M108.106 15.214c6.491 0 11.924 2.166 16.297 6.498 4.373 4.331 6.56 9.663 6.56 15.995 0 6.274-2.182 11.596-6.546 15.966-4.363 4.37-9.684 6.556-15.962 6.556-6.355 0-11.72-2.176-16.093-6.526-4.373-4.351-6.56-9.615-6.56-15.792 0-4.118.996-7.935 2.989-11.45 1.992-3.516 4.708-6.27 8.148-8.26 3.44-1.991 7.163-2.987 11.167-2.987Zm.19 4.167c-3.172 0-6.178.826-9.018 2.478-2.84 1.653-5.059 3.878-6.654 6.678-1.595 2.799-2.393 5.919-2.393 9.36 0 5.093 1.766 9.394 5.297 12.902 3.53 3.51 7.786 5.264 12.767 5.264 3.327 0 6.405-.807 9.236-2.42 2.83-1.614 5.039-3.82 6.625-6.62 1.585-2.799 2.378-5.91 2.378-9.33 0-3.402-.793-6.479-2.378-9.23-1.586-2.75-3.818-4.951-6.698-6.604-2.879-1.652-5.933-2.478-9.163-2.478Zm31.262 39.77V16.292h8.886c6.41 0 11.062.515 13.956 1.545 4.157 1.456 7.405 3.981 9.746 7.575 2.34 3.593 3.51 7.876 3.51 12.849 0 4.292-.927 8.07-2.782 11.333-1.855 3.264-4.263 5.672-7.225 7.226-2.962 1.554-7.114 2.33-12.456 2.33h-13.635Zm4.108-4.05h4.953c5.924 0 10.032-.369 12.324-1.106 3.225-1.048 5.76-2.936 7.605-5.662 1.845-2.727 2.768-6.06 2.768-10 0-4.134-1-7.666-3.001-10.596-2.001-2.93-4.788-4.94-8.362-6.026-2.68-.815-7.1-1.223-13.257-1.223h-3.03V55.1Zm40.324-38.809h24.56v4.196h-20.278v13.431h20.104v4.196h-20.104v16.84h20.104v4.196H183.99V16.292Zm32.194 0h8.537c4.759 0 7.983.195 9.673.584 2.545.583 4.613 1.833 6.206 3.749 1.593 1.915 2.39 4.273 2.39 7.074 0 2.334-.55 4.386-1.647 6.155-1.097 1.77-2.666 3.107-4.705 4.012-2.04.904-4.856 1.366-8.45 1.385l15.413 19.9h-5.299l-15.413-19.9h-2.422v19.9h-4.283V16.292Zm4.283 4.196v14.568l7.384.058c2.86 0 4.975-.271 6.347-.815 1.371-.544 2.441-1.413 3.21-2.608.768-1.195 1.153-2.53 1.153-4.007 0-1.437-.39-2.743-1.168-3.918-.778-1.175-1.8-2.016-3.064-2.52-1.265-.506-3.366-.758-6.303-.758h-7.559Zm31.73 38.663V16.292h.931l28.524 32.854V16.292h4.225v42.859h-.962l-28.29-32.454v32.454h-4.429Z" fill="#2289ff" fill-rule="evenodd" data-name="Path 2912"/><path d="M6.5 6h33v65h-33V6z" fill="#fff" fill-rule="evenodd" data-name="Rectangle 96"/><path d="M0 0h60.147v60.077H0V0Z" stroke-linejoin="round" stroke-linecap="round" stroke="#0954ab" fill="transparent" transform="matrix(.98337 0 0 .98335 9.82 8.858)" data-name="Subtraction 2"/><path d="m13.82 59.67 6.51-45.468h.738L39.552 51.51l18.306-37.308h.728L65.13 59.67h-4.455L56.18 27.153 40.105 59.67h-1.162L22.676 26.906 18.209 59.67H13.82Z" fill="#fff" fill-rule="evenodd" data-name="Path 2913"/><g data-name="Subtraction 3"><path d="M18.38 59.67H13.99l6.51-45.467h.738l18.436 37.21v8.256h-.56L22.845 26.907 18.38 59.67Z" fill="#2289ff" fill-rule="evenodd"/><path d="M18.38 59.67H13.99l6.51-45.467h.738l18.436 37.21v8.256h-.56L22.845 26.907 18.38 59.67h0Z" stroke-linejoin="round" stroke-linecap="round" stroke="rgba(0,0,0,0 )" fill="transparent"/></g></g></svg>